<?xml version="1.0" standalone="no"?><!DOCTYPE svg PUBLIC "-//W3C//DTD SVG 1.1//EN" "http://www.w3.org/Graphics/SVG/1.1/DTD/svg11.dtd"><svg t="1672476249503" class="icon" viewBox="0 0 1024 1024" version="1.1" xmlns="http://www.w3.org/2000/svg" p-id="2756" xmlns:xlink="http://www.w3.org/1999/xlink" width="200" height="200"><path d="M388.4 529.7H147.2c-27.1 0-49.2-22.1-49.2-49.2V239.3c0-27.1 22.1-49.2 49.2-49.2h241.2c27.1 0 49.2 22.1 49.2 49.2v241.2c0 27.1-22 49.2-49.2 49.2zM147.2 236c-1.8 0-3.3 1.5-3.3 3.3v241.2c0 1.8 1.5 3.3 3.3 3.3h241.2c1.8 0 3.3-1.5 3.3-3.3V239.3c0-1.8-1.5-3.3-3.3-3.3H147.2zM388.4 912.9H147.2c-27.1 0-49.2-22.1-49.2-49.2V622.5c0-27.1 22.1-49.2 49.2-49.2h241.2c27.1 0 49.2 22.1 49.2 49.2v241.2c0 27.2-22 49.2-49.2 49.2zM147.2 619.3c-1.8 0-3.3 1.5-3.3 3.3v241.2c0 1.8 1.5 3.3 3.3 3.3h241.2c1.8 0 3.3-1.5 3.3-3.3V622.5c0-1.8-1.5-3.3-3.3-3.3l-241.2 0.1zM780.2 912.9H539c-27.1 0-49.2-22.1-49.2-49.2V622.5c0-27.1 22.1-49.2 49.2-49.2h241.2c27.1 0 49.2 22.1 49.2 49.2v241.2c0 27.2-22.1 49.2-49.2 49.2zM539 619.3c-1.8 0-3.3 1.5-3.3 3.3v241.2c0 1.8 1.5 3.3 3.3 3.3h241.2c1.8 0 3.3-1.5 3.3-3.3V622.5c0-1.8-1.5-3.3-3.3-3.3l-241.2 0.1z" fill="#F9C73D" p-id="2757"></path><path d="M691.8 498.2l-170-169.9c-10.2-10.2-10.2-26.8 0-37l169.9-169.9c10.2-10.2 26.8-10.2 37 0l169.9 169.9c10.2 10.2 10.2 26.8 0 37L728.7 498.2c-10.1 10.2-26.8 10.2-36.9 0z" fill="#FFEABB" p-id="2758"></path><path d="M710.3 529.6c-12.8 0-25.5-4.9-35.3-14.6L505.1 345.1c-19.4-19.4-19.4-51.1 0-70.5l169.9-170c19.4-19.4 51.1-19.4 70.5 0l169.9 169.9c19.4 19.4 19.4 51.1 0 70.5L745.5 515c-9.7 9.7-22.5 14.6-35.2 14.6z m0-392.1c-0.6 0-1.3 0.2-1.7 0.7l-170 169.9c-0.9 0.9-0.9 2.5 0 3.4l169.9 169.9c0.6 0.6 1.2 0.7 1.7 0.7s1.1-0.1 1.7-0.7l169.9-169.9c0.9-0.9 0.9-2.5 0-3.4L712 138.2c-0.5-0.5-1.1-0.7-1.7-0.7z" fill="#F9C73D" p-id="2759"></path></svg>