<?xml version="1.0" standalone="no"?><!DOCTYPE svg PUBLIC "-//W3C//DTD SVG 1.1//EN" "http://www.w3.org/Graphics/SVG/1.1/DTD/svg11.dtd"><svg t="1671734281059" class="icon" viewBox="0 0 1024 1024" version="1.1" xmlns="http://www.w3.org/2000/svg" p-id="9949" xmlns:xlink="http://www.w3.org/1999/xlink" width="200" height="200"><path d="M550.744931 834.806034 550.744931 834.806034c-11.183713 0-16.754592 0-22.327518 0-5.53404 0-11.144828 0-16.718777 0l-5.572926 0c-5.571902 0-16.717753 0-22.289656 5.53404-22.290679 22.326495-61.298088 33.475416-111.453395 33.475416-33.434483 0-61.298088-5.610788-89.163739-16.7198-22.289656-11.143805-33.435507-22.326495-33.435507-39.009456 0-16.717753 11.143805-27.862581 39.009456-39.045271 16.717753-5.535063 22.289656-11.106965 22.289656-22.326495 0-11.106965 0-22.25384-5.572926-27.863604-11.144828-11.034311-16.718777-27.788903-27.863604-38.896892-5.572926-11.144828-16.71673-16.755616-27.861558-16.755616l0 0c-11.144828 0-16.717753 5.608741-27.863604 11.220552-11.143805 11.106965-16.717753 16.644075-22.290679 16.644075l0 0c-5.572926 0-11.106965-16.644075-11.106965-44.505633 0-27.863604 5.535063-61.336974 11.070126-94.810343 11.145851-33.398668 27.862581-61.261249 55.725162-89.124853 5.574972-5.535063 11.146874-16.717753 11.146874-27.863604 0-5.53404 0-5.53404 0-11.106965 0-16.755616 5.571902-33.435507 16.71673-50.154283 5.573949-5.572926 5.573949-11.143805 5.573949-16.717753l0-5.573949c0.035816-66.908876 22.288632-122.635061 72.480778-172.789345 44.582381-50.191122 100.30652-72.444962 167.180604-72.444962 66.872037 0 122.600269 22.290679 172.751482 72.444962 44.618197 50.154283 72.480778 105.880469 72.480778 172.715667 0 0 0 0 0 5.572926 0 5.573949 0 11.144828 5.536087 16.717753 11.141758 16.718777 16.717753 33.398668 16.717753 50.154283 0 5.572926 0 5.572926 0 11.106965 0 11.144828 0 22.326495 11.143805 27.862581 27.863604 27.862581 44.581358 55.726186 55.726186 89.124853 11.144828 33.474392 16.717753 66.944691 11.144828 94.810343 0 27.862581-5.573949 38.97057-16.681938 44.50768-5.573949 0-11.183713-5.535063-22.328541-16.645099-5.533017-5.572926-16.718777-11.219529-27.861558-11.219529l-5.536087 0c-11.184737 0-22.325471 5.606695-27.861558 16.753569-5.573949 16.71673-16.754592 27.863604-27.863604 38.969547-5.572926 5.608741-11.18269 16.754592-5.572926 27.863604 0 11.220552 11.145851 16.753569 16.682961 22.326495 27.826765 11.219529 39.010479 22.364357 39.010479 39.08211 0 16.680914-11.183713 27.863604-33.43653 39.008432-22.289656 11.106965-55.724139 16.7198-89.164762 16.7198-50.15326 0-83.58979-11.184737-111.452371-33.474392 5.571902 0-5.572926-5.572926-11.106965-5.572926l0 0L550.744931 834.806034zM678.880263 940.724365c55.726186 0 100.30652-11.143805 133.74305-33.398668 33.435507-22.326495 55.724139-50.191122 55.724139-89.163739 0-22.291702-5.53404-39.046295-16.678868-55.726186 5.571902 0 16.678868 0 22.287609-5.608741 33.435507-11.106965 50.15633-38.97057 55.727209-83.591837 5.571902-38.9675 0-83.58979-16.681938-133.706211-11.18269-39.046295-33.435507-72.444962-61.297065-105.880469l0 0c0-27.862581-5.573949-50.154283-16.7198-78.015841 0-83.590813-27.861558-156.034752-89.124853-217.370703C684.450119 76.963882 612.004133 49.098231 528.418436 49.098231c-83.590813 0-156.034752 27.862581-217.334887 89.124853-55.764048 61.33595-89.163739 133.781936-89.163739 217.370703-11.143805 22.290679-16.717753 50.154283-16.717753 78.016865l0 5.571902c-33.434483 27.863604-50.154283 66.87306-61.298088 100.305497-16.718777 50.118468-22.290679 94.737688-16.718777 133.708258 5.573949 44.61922 27.863604 72.482825 55.726186 83.590813 5.572926 0 16.718777 5.608741 22.290679 5.608741-11.144828 16.681938-16.718777 33.43653-16.718777 55.726186 0 33.435507 16.718777 66.872037 55.727209 89.163739 33.435507 22.291702 78.015841 33.435507 128.169101 33.435507 55.725162 0 105.880469-11.142781 139.316999-39.007409l27.863604 0c39.045271 27.862581 83.590813 39.007409 139.316999 39.007409l0 0L678.880263 940.724365z" fill="#2c2c2c" p-id="9950"></path></svg>