<?xml version="1.0" standalone="no"?><!DOCTYPE svg PUBLIC "-//W3C//DTD SVG 1.1//EN" "http://www.w3.org/Graphics/SVG/1.1/DTD/svg11.dtd"><svg t="1671732826627" class="icon" viewBox="0 0 1024 1024" version="1.1" xmlns="http://www.w3.org/2000/svg" p-id="7230" xmlns:xlink="http://www.w3.org/1999/xlink" width="200" height="200"><path d="M621.105 489.791c40.778-32.161 66.87-81.92 66.87-137.747 0-96.726-78.643-175.37-175.37-175.37s-175.37 78.643-175.37 175.37c0 55.827 26.214 105.586 66.87 137.747-36.895 14.563-70.755 36.773-99.638 65.658-55.584 55.584-86.167 129.494-86.167 208.138 0 16.262 0 33.618 0.122 49.637s13.107 29.006 29.127 29.006h530.235c16.02 0 29.127-12.986 29.127-29.006v-49.637c0-78.643-30.583-152.554-86.167-208.138-28.884-28.884-62.745-51.094-99.638-65.658zM395.491 352.044c0-64.565 52.55-117.115 117.115-117.115s117.115 52.55 117.115 117.115-52.55 117.115-117.115 117.115c-64.565 0.122-117.115-52.55-117.115-117.115z m353.167 412.148v19.782H276.557v-20.389c0-130.222 105.95-236.051 236.051-236.051 130.222 0 236.051 105.828 236.051 236.051v0.607z" fill="#333333" p-id="7231"></path><path d="M871.477 545.982c-21.482-28.763-49.274-52.55-80.828-69.42 26.457-26.7 41.748-62.988 41.748-101.945 0-32.161-10.316-62.501-29.733-87.988-18.811-24.515-45.511-42.841-75.124-51.337-12.865-3.641-26.336 3.762-29.977 16.626s3.762 26.336 16.626 29.977c41.021 11.773 69.783 49.881 69.783 92.721 0 36.53-20.268 69.42-52.793 86.047-8.738 4.491-13.957 13.836-13.229 23.666 0.85 9.83 7.524 18.205 16.869 21.117 81.556 25.607 136.291 100.246 136.291 185.685v40.778c0 13.349 10.801 24.272 24.151 24.394h0.122c13.349 0 24.272-10.801 24.272-24.151v-40.899c-0.122-52.793-16.748-103.037-48.181-145.271z m-586.062-40.414c9.467-2.913 16.142-11.286 16.869-21.117 0.85-9.83-4.369-19.175-13.229-23.666-32.526-16.626-52.793-49.516-52.793-86.047 0-42.841 28.641-80.949 69.783-92.721 12.865-3.762 20.268-17.113 16.626-29.977-3.762-12.865-17.113-20.268-29.977-16.626-29.613 8.496-56.313 26.821-75.124 51.337-19.419 25.486-29.733 55.827-29.733 87.988 0 38.958 15.292 75.245 41.748 101.945-31.434 16.869-59.346 40.656-80.828 69.42-31.554 42.235-48.181 92.479-48.181 145.271v40.899c0 13.349 10.923 24.151 24.272 24.151h0.122c13.349 0 24.272-10.923 24.151-24.394v-40.778c0-85.561 54.855-160.199 136.291-185.685z" fill="#333333" p-id="7232"></path></svg>