<?xml version="1.0" standalone="no"?><!DOCTYPE svg PUBLIC "-//W3C//DTD SVG 1.1//EN" "http://www.w3.org/Graphics/SVG/1.1/DTD/svg11.dtd"><svg t="1671734455925" class="icon" viewBox="0 0 1024 1024" version="1.1" xmlns="http://www.w3.org/2000/svg" p-id="11609" xmlns:xlink="http://www.w3.org/1999/xlink" width="200" height="200"><path d="M499.80416 366.46912c-28.91264 0-60.40064-20.13696-60.91776-52.14208 0-32.00512 31.49312-52.14208 60.91776-52.14208 30.96576 0 52.13184 21.6832 52.13184 52.14208 0 30.976-21.67808 52.14208-52.13184 52.14208zM268.52352 366.46912c-29.42464 0-60.91264-20.13696-60.91264-52.14208s31.488-52.14208 60.91264-52.14208c30.45888 0 52.14208 21.6832 52.14208 52.14208 0 30.976-21.6832 52.14208-52.14208 52.14208z" p-id="11610"></path><path d="M888.01792 918.85568c-4.13184 0-8.7808-1.03936-12.3904-3.10272l-81.57184-44.90752c-32.00512 7.74656-63.488 14.97088-95.50848 14.97088-125.96224 0-238.49984-66.59584-284.96384-167.26016-1.54624 0.51712-3.0976 0.51712-4.12672 0.51712a355.87584 355.87584 0 0 1-33.03936 1.55648c-37.1712 0-67.11296-6.1952-101.70368-13.42464l-10.32704-2.05824-107.38176 53.6832c-3.6096 2.06336-7.74144 2.5856-11.87328 2.5856-6.19008 0-12.3904-2.05824-17.03424-6.1952-7.74144-6.71744-10.84416-18.06336-7.74144-27.87328l26.84416-81.57696C63.57504 582.26176 19.69152 501.72416 19.69152 412.928c0-169.32864 160.03584-307.16928 356.20864-307.16928 172.43136 0 325.75488 107.38176 358.28224 249.86624 152.81152 16 271.03232 130.09408 271.03232 263.80288 0 70.21056-39.75168 140.928-111.50848 199.78752l19.61984 65.56672c3.09248 10.33216-0.51712 21.1712-8.77056 27.8784-4.66432 4.13184-10.85952 6.1952-16.5376 6.1952zM797.1584 817.152c4.13696 0 8.7808 1.03424 12.3904 3.0976l35.10784 19.0976-6.71744-21.6832a26.3168 26.3168 0 0 1 9.28256-28.39552c68.15232-51.10272 105.31328-110.99136 105.31328-169.32352 0-115.64032-116.66944-213.72928-254.51008-213.72928-140.42112 0-255.0272 96.02048-255.0272 213.72928s114.60608 213.72416 255.0272 213.72416c30.45376 0 61.95712-7.75168 92.92288-15.48288 2.08384-0.52224 4.1472-1.03424 6.21056-1.03424zM375.90016 158.41792c-167.7824 0-304.58368 114.60608-304.58368 255.0272 0 77.95712 40.7808 145.5872 121.3184 201.856 9.28768 6.71232 13.41952 18.59072 9.80992 29.42464l-13.41952 39.7568 59.37152-29.94688c3.6096-1.54624 7.74144-2.5856 11.35616-2.5856 1.54624 0 3.6096 0 5.16096 0.52224l18.5856 3.6096c32.00512 6.72256 59.3664 12.40064 91.89376 12.40064 6.71232 0 13.94176 0 20.64896-0.53248-3.61472-16-5.16096-32.52224-5.16096-48.00512 0-140.42112 128.03072-256.57344 288.58368-265.34912-33.0496-112.54272-161.0752-196.17792-303.5648-196.17792z" p-id="11611"></path><path d="M607.17568 589.99808c-22.7072 0-43.87328-21.1712-43.87328-43.8784s21.1712-43.8784 43.87328-43.8784c32.01536 0 52.1472 22.72256 52.1472 43.8784-0.00512 26.84928-26.83904 43.8784-52.1472 43.8784zM788.89984 589.99808c-22.72256 0-43.86816-21.1712-43.86816-43.8784s21.16096-43.8784 43.86816-43.8784c32.53248 0 52.6592 22.72256 52.6592 43.8784-0.51712 21.1712-20.64896 43.8784-52.6592 43.8784z" p-id="11612"></path></svg>